<?xml version="1.0" encoding="UTF-8" standalone="no"?>
<!DOCTYPE svg PUBLIC "-//W3C//DTD SVG 1.1//EN"
 "http://www.w3.org/Graphics/SVG/1.1/DTD/svg11.dtd">
<!-- Generated by graphviz version 3.0.0 (20220226.1711)
 -->
<!-- Title: dependency&#45;cruiser output Pages: 1 -->
<svg width="264pt" height="444pt"
 viewBox="0.00 0.00 264.00 444.00" xmlns="http://www.w3.org/2000/svg" xmlns:xlink="http://www.w3.org/1999/xlink">
<g id="graph0" class="graph" transform="scale(1 1) rotate(0) translate(4 440)">
<title>dependency&#45;cruiser output</title>
<polygon fill="white" stroke="transparent" points="-4,4 -4,-440 260,-440 260,4 -4,4"/>
<g id="clust1" class="cluster">
<title>cluster_components</title>
<path fill="#ffffff" stroke="black" stroke-width="2" d="M20,-8C20,-8 236,-8 236,-8 242,-8 248,-14 248,-20 248,-20 248,-416 248,-416 248,-422 242,-428 236,-428 236,-428 20,-428 20,-428 14,-428 8,-422 8,-416 8,-416 8,-20 8,-20 8,-14 14,-8 20,-8"/>
<text text-anchor="middle" x="128" y="-416.8" font-family="Helvetica,sans-Serif" font-weight="bold" font-size="9.00">components</text>
</g>
<g id="clust2" class="cluster">
<title>cluster_components/Item</title>
<path fill="#ffffff" stroke="black" stroke-width="2" d="M48.5,-316C48.5,-316 94.5,-316 94.5,-316 100.5,-316 106.5,-322 106.5,-328 106.5,-328 106.5,-356 106.5,-356 106.5,-362 100.5,-368 94.5,-368 94.5,-368 48.5,-368 48.5,-368 42.5,-368 36.5,-362 36.5,-356 36.5,-356 36.5,-328 36.5,-328 36.5,-322 42.5,-316 48.5,-316"/>
<text text-anchor="middle" x="71.5" y="-356.8" font-family="Helvetica,sans-Serif" font-weight="bold" font-size="9.00">Item</text>
</g>
<g id="clust3" class="cluster">
<title>cluster_components/app&#45;bar</title>
<path fill="#ffffff" stroke="black" stroke-width="2" d="M48.5,-256C48.5,-256 94.5,-256 94.5,-256 100.5,-256 106.5,-262 106.5,-268 106.5,-268 106.5,-296 106.5,-296 106.5,-302 100.5,-308 94.5,-308 94.5,-308 48.5,-308 48.5,-308 42.5,-308 36.5,-302 36.5,-296 36.5,-296 36.5,-268 36.5,-268 36.5,-262 42.5,-256 48.5,-256"/>
<text text-anchor="middle" x="71.5" y="-296.8" font-family="Helvetica,sans-Serif" font-weight="bold" font-size="9.00">app&#45;bar</text>
</g>
<g id="clust4" class="cluster">
<title>cluster_components/charts</title>
<path fill="#ffffff" stroke="black" stroke-width="2" d="M28,-136C28,-136 210.5,-136 210.5,-136 216.5,-136 222.5,-142 222.5,-148 222.5,-148 222.5,-236 222.5,-236 222.5,-242 216.5,-248 210.5,-248 210.5,-248 28,-248 28,-248 22,-248 16,-242 16,-236 16,-236 16,-148 16,-148 16,-142 22,-136 28,-136"/>
<text text-anchor="middle" x="119.25" y="-236.8" font-family="Helvetica,sans-Serif" font-weight="bold" font-size="9.00">charts</text>
</g>
<g id="clust5" class="cluster">
<title>cluster_components/elements</title>
<path fill="#ffffff" stroke="black" stroke-width="2" d="M151.5,-256C151.5,-256 224.5,-256 224.5,-256 230.5,-256 236.5,-262 236.5,-268 236.5,-268 236.5,-390 236.5,-390 236.5,-396 230.5,-402 224.5,-402 224.5,-402 151.5,-402 151.5,-402 145.5,-402 139.5,-396 139.5,-390 139.5,-390 139.5,-268 139.5,-268 139.5,-262 145.5,-256 151.5,-256"/>
<text text-anchor="middle" x="188" y="-390.8" font-family="Helvetica,sans-Serif" font-weight="bold" font-size="9.00">elements</text>
</g>
<g id="clust6" class="cluster">
<title>cluster_components/elements/AddButton</title>
<path fill="#ffffff" stroke="black" stroke-width="2" d="M164.5,-324C164.5,-324 210.5,-324 210.5,-324 216.5,-324 222.5,-330 222.5,-336 222.5,-336 222.5,-364 222.5,-364 222.5,-370 216.5,-376 210.5,-376 210.5,-376 164.5,-376 164.5,-376 158.5,-376 152.5,-370 152.5,-364 152.5,-364 152.5,-336 152.5,-336 152.5,-330 158.5,-324 164.5,-324"/>
<text text-anchor="middle" x="187.5" y="-364.8" font-family="Helvetica,sans-Serif" font-weight="bold" font-size="9.00">AddButton</text>
</g>
<g id="clust7" class="cluster">
<title>cluster_components/elements/RemoveButton</title>
<path fill="#ffffff" stroke="black" stroke-width="2" d="M159.5,-264C159.5,-264 216.5,-264 216.5,-264 222.5,-264 228.5,-270 228.5,-276 228.5,-276 228.5,-304 228.5,-304 228.5,-310 222.5,-316 216.5,-316 216.5,-316 159.5,-316 159.5,-316 153.5,-316 147.5,-310 147.5,-304 147.5,-304 147.5,-276 147.5,-276 147.5,-270 153.5,-264 159.5,-264"/>
<text text-anchor="middle" x="188" y="-304.8" font-family="Helvetica,sans-Serif" font-weight="bold" font-size="9.00">RemoveButton</text>
</g>
<g id="clust8" class="cluster">
<title>cluster_components/navigation</title>
<path fill="#ffffff" stroke="black" stroke-width="2" d="M32,-16C32,-16 228,-16 228,-16 234,-16 240,-22 240,-28 240,-28 240,-116 240,-116 240,-122 234,-128 228,-128 228,-128 32,-128 32,-128 26,-128 20,-122 20,-116 20,-116 20,-28 20,-28 20,-22 26,-16 32,-16"/>
<text text-anchor="middle" x="130" y="-116.8" font-family="Helvetica,sans-Serif" font-weight="bold" font-size="9.00">navigation</text>
</g>
<g id="clust9" class="cluster">
<title>cluster_components/navigation/tab&#45;bar</title>
<path fill="#ffffff" stroke="black" stroke-width="2" d="M48.5,-50C48.5,-50 94.5,-50 94.5,-50 100.5,-50 106.5,-56 106.5,-62 106.5,-62 106.5,-90 106.5,-90 106.5,-96 100.5,-102 94.5,-102 94.5,-102 48.5,-102 48.5,-102 42.5,-102 36.5,-96 36.5,-90 36.5,-90 36.5,-62 36.5,-62 36.5,-56 42.5,-50 48.5,-50"/>
<text text-anchor="middle" x="71.5" y="-90.8" font-family="Helvetica,sans-Serif" font-weight="bold" font-size="9.00">tab&#45;bar</text>
</g>
<!-- components/Item/index.js -->
<g id="node1" class="node">
<title>components/Item/index.js</title>
<g id="a_node1"><a xlink:href="components/Item/index.js" xlink:title="index.js">
<path fill="#ffffcc" stroke="black" d="M92.5,-342C92.5,-342 50.5,-342 50.5,-342 47.5,-342 44.5,-339 44.5,-336 44.5,-336 44.5,-330 44.5,-330 44.5,-327 47.5,-324 50.5,-324 50.5,-324 92.5,-324 92.5,-324 95.5,-324 98.5,-327 98.5,-330 98.5,-330 98.5,-336 98.5,-336 98.5,-339 95.5,-342 92.5,-342"/>
<text text-anchor="start" x="55.5" y="-330.8" font-family="Helvetica,sans-Serif" font-size="9.00">index.js</text>
</a>
</g>
</g>
<!-- components/elements/RemoveButton/index.js -->
<g id="node2" class="node">
<title>components/elements/RemoveButton/index.js</title>
<g id="a_node2"><a xlink:href="components/elements/RemoveButton/index.js" xlink:title="index.js">
<path fill="#ffffcc" stroke="black" d="M208.5,-290C208.5,-290 166.5,-290 166.5,-290 163.5,-290 160.5,-287 160.5,-284 160.5,-284 160.5,-278 160.5,-278 160.5,-275 163.5,-272 166.5,-272 166.5,-272 208.5,-272 208.5,-272 211.5,-272 214.5,-275 214.5,-278 214.5,-278 214.5,-284 214.5,-284 214.5,-287 211.5,-290 208.5,-290"/>
<text text-anchor="start" x="171.5" y="-278.8" font-family="Helvetica,sans-Serif" font-size="9.00">index.js</text>
</a>
</g>
</g>
<!-- components/Item/index.js&#45;&gt;components/elements/RemoveButton/index.js -->
<g id="edge1" class="edge">
<title>components/Item/index.js&#45;&gt;components/elements/RemoveButton/index.js</title>
<path fill="none" stroke="#000000" stroke-width="2" stroke-opacity="0.200000" d="M92.36,-323.94C111.37,-315.27 140.14,-302.15 160.87,-292.69"/>
<polygon fill="#000000" fill-opacity="0.200000" stroke="#000000" stroke-width="2" stroke-opacity="0.200000" points="161.9,-294.53 166.49,-290.13 160.16,-290.71 161.9,-294.53"/>
</g>
<!-- components/app&#45;bar/index.js -->
<g id="node3" class="node">
<title>components/app&#45;bar/index.js</title>
<g id="a_node3"><a xlink:href="components/app-bar/index.js" xlink:title="index.js">
<path fill="#ccffcc" stroke="black" d="M92.5,-282C92.5,-282 50.5,-282 50.5,-282 47.5,-282 44.5,-279 44.5,-276 44.5,-276 44.5,-270 44.5,-270 44.5,-267 47.5,-264 50.5,-264 50.5,-264 92.5,-264 92.5,-264 95.5,-264 98.5,-267 98.5,-270 98.5,-270 98.5,-276 98.5,-276 98.5,-279 95.5,-282 92.5,-282"/>
<text text-anchor="start" x="55.5" y="-270.8" font-family="Helvetica,sans-Serif" font-size="9.00">index.js</text>
</a>
</g>
</g>
<!-- components/charts/LineChart.js -->
<g id="node4" class="node">
<title>components/charts/LineChart.js</title>
<g id="a_node4"><a xlink:href="components/charts/LineChart.js" xlink:title="LineChart.js">
<path fill="#ffffcc" stroke="black" d="M98.5,-222C98.5,-222 44.5,-222 44.5,-222 41.5,-222 38.5,-219 38.5,-216 38.5,-216 38.5,-210 38.5,-210 38.5,-207 41.5,-204 44.5,-204 44.5,-204 98.5,-204 98.5,-204 101.5,-204 104.5,-207 104.5,-210 104.5,-210 104.5,-216 104.5,-216 104.5,-219 101.5,-222 98.5,-222"/>
<text text-anchor="start" x="46.5" y="-210.8" font-family="Helvetica,sans-Serif" font-size="9.00">LineChart.js</text>
</a>
</g>
</g>
<!-- components/charts/config.js -->
<g id="node5" class="node">
<title>components/charts/config.js</title>
<g id="a_node5"><a xlink:href="components/charts/config.js" xlink:title="config.js">
<path fill="#ffffcc" stroke="black" d="M208.5,-192C208.5,-192 166.5,-192 166.5,-192 163.5,-192 160.5,-189 160.5,-186 160.5,-186 160.5,-180 160.5,-180 160.5,-177 163.5,-174 166.5,-174 166.5,-174 208.5,-174 208.5,-174 211.5,-174 214.5,-177 214.5,-180 214.5,-180 214.5,-186 214.5,-186 214.5,-189 211.5,-192 208.5,-192"/>
<text text-anchor="start" x="170.5" y="-180.8" font-family="Helvetica,sans-Serif" font-size="9.00">config.js</text>
</a>
</g>
</g>
<!-- components/charts/LineChart.js&#45;&gt;components/charts/config.js -->
<g id="edge2" class="edge">
<title>components/charts/LineChart.js&#45;&gt;components/charts/config.js</title>
<path fill="none" stroke="#000000" stroke-width="2" stroke-opacity="0.200000" d="M104.56,-204.56C120.14,-200.46 138.82,-195.55 154.4,-191.45"/>
<polygon fill="#000000" fill-opacity="0.200000" stroke="#000000" stroke-width="2" stroke-opacity="0.200000" points="155.17,-193.42 160.43,-189.86 154.1,-189.36 155.17,-193.42"/>
</g>
<!-- components/charts/PieChart.js -->
<g id="node6" class="node">
<title>components/charts/PieChart.js</title>
<g id="a_node6"><a xlink:href="components/charts/PieChart.js" xlink:title="PieChart.js">
<path fill="#ffffcc" stroke="black" d="M96.5,-192C96.5,-192 46.5,-192 46.5,-192 43.5,-192 40.5,-189 40.5,-186 40.5,-186 40.5,-180 40.5,-180 40.5,-177 43.5,-174 46.5,-174 46.5,-174 96.5,-174 96.5,-174 99.5,-174 102.5,-177 102.5,-180 102.5,-180 102.5,-186 102.5,-186 102.5,-189 99.5,-192 96.5,-192"/>
<text text-anchor="start" x="48.5" y="-180.8" font-family="Helvetica,sans-Serif" font-size="9.00">PieChart.js</text>
</a>
</g>
</g>
<!-- components/charts/PieChart.js&#45;&gt;components/charts/config.js -->
<g id="edge3" class="edge">
<title>components/charts/PieChart.js&#45;&gt;components/charts/config.js</title>
<path fill="none" stroke="#000000" stroke-width="2" stroke-opacity="0.200000" d="M102.75,-183C118.59,-183 137.99,-183 154.13,-183"/>
<polygon fill="#000000" fill-opacity="0.200000" stroke="#000000" stroke-width="2" stroke-opacity="0.200000" points="154.37,-185.1 160.37,-183 154.37,-180.9 154.37,-185.1"/>
</g>
<!-- components/charts/StackedBarChart.js -->
<g id="node7" class="node">
<title>components/charts/StackedBarChart.js</title>
<g id="a_node7"><a xlink:href="components/charts/StackedBarChart.js" xlink:title="StackedBarChart.js">
<path fill="#ffffcc" stroke="black" d="M113,-162C113,-162 30,-162 30,-162 27,-162 24,-159 24,-156 24,-156 24,-150 24,-150 24,-147 27,-144 30,-144 30,-144 113,-144 113,-144 116,-144 119,-147 119,-150 119,-150 119,-156 119,-156 119,-159 116,-162 113,-162"/>
<text text-anchor="start" x="32" y="-150.8" font-family="Helvetica,sans-Serif" font-size="9.00">StackedBarChart.js</text>
</a>
</g>
</g>
<!-- components/charts/StackedBarChart.js&#45;&gt;components/charts/config.js -->
<g id="edge4" class="edge">
<title>components/charts/StackedBarChart.js&#45;&gt;components/charts/config.js</title>
<path fill="none" stroke="#000000" stroke-width="2" stroke-opacity="0.200000" d="M106.7,-162C121.74,-165.96 139.31,-170.58 154.13,-174.48"/>
<polygon fill="#000000" fill-opacity="0.200000" stroke="#000000" stroke-width="2" stroke-opacity="0.200000" points="153.96,-176.61 160.29,-176.1 155.03,-172.55 153.96,-176.61"/>
</g>
<!-- components/elements/AddButton/index.js -->
<g id="node8" class="node">
<title>components/elements/AddButton/index.js</title>
<g id="a_node8"><a xlink:href="components/elements/AddButton/index.js" xlink:title="index.js">
<path fill="#ccffcc" stroke="black" d="M208.5,-350C208.5,-350 166.5,-350 166.5,-350 163.5,-350 160.5,-347 160.5,-344 160.5,-344 160.5,-338 160.5,-338 160.5,-335 163.5,-332 166.5,-332 166.5,-332 208.5,-332 208.5,-332 211.5,-332 214.5,-335 214.5,-338 214.5,-338 214.5,-344 214.5,-344 214.5,-347 211.5,-350 208.5,-350"/>
<text text-anchor="start" x="171.5" y="-338.8" font-family="Helvetica,sans-Serif" font-size="9.00">index.js</text>
</a>
</g>
</g>
<!-- components/navigation/root&#45;navigation.js -->
<g id="node9" class="node">
<title>components/navigation/root&#45;navigation.js</title>
<g id="a_node9"><a xlink:href="components/navigation/root-navigation.js" xlink:title="root&#45;navigation.js">
<path fill="#ffffcc" stroke="black" d="M109,-42C109,-42 34,-42 34,-42 31,-42 28,-39 28,-36 28,-36 28,-30 28,-30 28,-27 31,-24 34,-24 34,-24 109,-24 109,-24 112,-24 115,-27 115,-30 115,-30 115,-36 115,-36 115,-39 112,-42 109,-42"/>
<text text-anchor="start" x="36" y="-30.8" font-family="Helvetica,sans-Serif" font-size="9.00">root&#45;navigation.js</text>
</a>
</g>
</g>
<!-- components/navigation/tabs&#45;navigation.js -->
<g id="node10" class="node">
<title>components/navigation/tabs&#45;navigation.js</title>
<g id="a_node10"><a xlink:href="components/navigation/tabs-navigation.js" xlink:title="tabs&#45;navigation.js">
<path fill="#ffffcc" stroke="black" d="M226,-42C226,-42 149,-42 149,-42 146,-42 143,-39 143,-36 143,-36 143,-30 143,-30 143,-27 146,-24 149,-24 149,-24 226,-24 226,-24 229,-24 232,-27 232,-30 232,-30 232,-36 232,-36 232,-39 229,-42 226,-42"/>
<text text-anchor="start" x="151" y="-30.8" font-family="Helvetica,sans-Serif" font-size="9.00">tabs&#45;navigation.js</text>
</a>
</g>
</g>
<!-- components/navigation/root&#45;navigation.js&#45;&gt;components/navigation/tabs&#45;navigation.js -->
<g id="edge5" class="edge">
<title>components/navigation/root&#45;navigation.js&#45;&gt;components/navigation/tabs&#45;navigation.js</title>
<path fill="none" stroke="#000000" stroke-width="2" stroke-opacity="0.200000" d="M115.27,-33C122.14,-33 129.31,-33 136.33,-33"/>
<polygon fill="#000000" fill-opacity="0.200000" stroke="#000000" stroke-width="2" stroke-opacity="0.200000" points="136.73,-35.1 142.73,-33 136.73,-30.9 136.73,-35.1"/>
</g>
<!-- components/navigation/tab&#45;bar/index.js -->
<g id="node11" class="node">
<title>components/navigation/tab&#45;bar/index.js</title>
<g id="a_node11"><a xlink:href="components/navigation/tab-bar/index.js" xlink:title="index.js">
<path fill="#ccffcc" stroke="black" d="M92.5,-76C92.5,-76 50.5,-76 50.5,-76 47.5,-76 44.5,-73 44.5,-70 44.5,-70 44.5,-64 44.5,-64 44.5,-61 47.5,-58 50.5,-58 50.5,-58 92.5,-58 92.5,-58 95.5,-58 98.5,-61 98.5,-64 98.5,-64 98.5,-70 98.5,-70 98.5,-73 95.5,-76 92.5,-76"/>
<text text-anchor="start" x="55.5" y="-64.8" font-family="Helvetica,sans-Serif" font-size="9.00">index.js</text>
</a>
</g>
</g>
</g>
</svg>
